<svg width="34" height="20" viewBox="0 0 34 20" fill="none" xmlns="http://www.w3.org/2000/svg">
<path fill-rule="evenodd" clip-rule="evenodd" d="M9.56888 0.0129193C7.59807 0.114242 5.75773 0.757665 4.15412 1.90604C3.41798 2.4332 2.65925 3.16612 2.09195 3.89803C0.848359 5.5025 0.14265 7.37708 0.014799 9.41565C-0.0335013 10.186 0.0383972 11.1725 0.201705 11.9799C0.844644 15.1585 2.99389 17.818 5.99633 19.1501C7.64712 19.8825 9.54579 20.1538 11.3589 19.9162C12.4194 19.7773 13.453 19.4637 14.4317 18.9839C15.0943 18.6592 15.7242 18.267 16.2491 17.8525L16.3808 17.7484L16.1734 17.5395C15.0307 16.3887 14.1587 14.9708 13.6351 13.4121C13.5851 13.2632 13.5442 13.1351 13.5442 13.1275C13.5442 13.1194 13.7134 13.1137 13.9599 13.1137H14.3756L14.4465 13.3175C14.8384 14.443 15.4801 15.5525 16.2788 16.4857C16.4363 16.6698 16.797 17.0512 16.901 17.1437L17.0021 17.2337L17.1714 17.0672C18.234 16.0222 19.0713 14.7099 19.5639 13.3175L19.636 13.1137H20.0508C20.2789 13.1137 20.4655 13.119 20.4655 13.1254C20.4655 13.153 20.3065 13.6153 20.2197 13.84C19.8603 14.7707 19.3908 15.6134 18.7752 16.4326C18.4888 16.8138 18.2553 17.085 17.855 17.5016L17.6052 17.7615L17.8354 17.9389C18.9072 18.7646 20.1742 19.3741 21.4991 19.7015C22.3282 19.9064 23.0492 19.9944 23.9113 19.9959C24.4299 19.9969 24.6982 19.9816 25.1717 19.9242C27.3382 19.6614 29.3876 18.6865 30.9357 17.1824C32.1486 16.0038 33.0005 14.6519 33.5097 13.0975C33.9872 11.6398 34.1155 10.1436 33.8965 8.58562C33.5845 6.36686 32.5176 4.31195 30.8672 2.75105C29.6065 1.55875 28.0643 0.714786 26.3891 0.300422C24.7075 -0.115528 22.948 -0.0978007 21.2934 0.351765C20.0279 0.695621 18.777 1.31881 17.783 2.1007L17.6043 2.24121L17.8006 2.44224C18.8841 3.5522 19.6345 4.69805 20.1956 6.09923C20.2579 6.25476 20.4655 6.85185 20.4655 6.87541C20.4655 6.88268 20.2799 6.8885 20.0491 6.8885H19.6326L19.592 6.76622C19.5338 6.59107 19.3796 6.20162 19.2796 5.97695C18.9583 5.25539 18.5245 4.53261 18.0433 3.91669C17.7538 3.54626 17.5915 3.36296 17.2394 3.00889L16.9998 2.76806L16.9017 2.86067C16.3442 3.38639 15.7415 4.14403 15.2998 4.87427C14.9619 5.43294 14.6092 6.18662 14.4249 6.74399L14.3771 6.8885H13.9606C13.7316 6.8885 13.5442 6.88277 13.5442 6.87576C13.5442 6.84215 13.7386 6.28674 13.8372 6.03888C14.3676 4.70485 15.1628 3.48622 16.1664 2.46941L16.3806 2.25236L16.1967 2.11229C15.6458 1.69258 15.1676 1.39046 14.5791 1.09039C13.0179 0.294271 11.2966 -0.0758941 9.56888 0.0129193ZM22.5837 7.6749C22.9314 7.70643 23.2263 7.79642 23.437 7.93534C23.5512 8.01057 23.7919 8.22948 23.7919 8.25806C23.7919 8.27271 23.4949 8.57047 23.2294 8.82193L23.1367 8.90972L23.0056 8.84886C22.8276 8.76618 22.6944 8.73947 22.4494 8.73734C22.2945 8.73598 22.2274 8.74173 22.1586 8.76228C21.5841 8.93371 21.2051 9.38476 21.1215 9.99662C21.0987 10.1641 21.1097 10.4776 21.1429 10.6014C21.2343 10.9429 21.4904 11.1969 21.8304 11.2835C22.0344 11.3354 22.3252 11.326 22.5769 11.2593C22.6422 11.242 22.7049 11.227 22.7163 11.2259C22.7307 11.2245 22.7821 11.3579 22.8841 11.661C22.965 11.9014 23.0312 12.1023 23.0312 12.1075C23.0312 12.134 22.6772 12.252 22.4867 12.2891C22.2013 12.3447 21.732 12.3593 21.5022 12.3198C21.1182 12.2538 20.781 12.0791 20.5218 11.8119C20.2805 11.5632 20.1394 11.2994 20.0526 10.9349C20.0009 10.7176 19.9887 10.3285 20.0247 10.0473C20.0744 9.65912 20.2083 9.21649 20.357 8.94876C20.7461 8.24817 21.4257 7.76979 22.166 7.67537C22.3062 7.65748 22.3906 7.65739 22.5837 7.6749ZM33.1007 7.67036C33.1012 7.67647 32.9048 8.73028 32.6644 10.0122L32.2273 12.3428L31.6815 12.3429L31.1357 12.343L31.0786 12.2133C31.0472 12.142 31.0168 12.0781 31.011 12.0714C31.0052 12.0647 30.9443 12.0894 30.8755 12.1263C30.6348 12.2555 30.3285 12.3426 30.1137 12.3429C29.6092 12.3435 29.1353 11.8381 29.0076 11.1636C28.9506 10.8623 28.9634 10.5804 29.0493 10.2478C29.2211 9.58224 29.5495 9.05365 29.933 8.82574C30.1752 8.68173 30.3817 8.63739 30.8085 8.63772C31.2571 8.63806 31.3631 8.6761 31.6134 8.9265C31.7564 9.06947 31.7621 9.07343 31.7738 9.03769C31.7805 9.01731 31.8401 8.71717 31.9063 8.3707C31.9724 8.02424 32.0303 7.72243 32.0349 7.70001L32.0432 7.65925H32.5716C32.8622 7.65925 33.1003 7.66426 33.1007 7.67036ZM14.1484 7.73706C14.144 7.7554 14.1004 7.9605 14.0513 8.19284C14.0023 8.42517 13.9587 8.63028 13.9543 8.64861L13.9464 8.68196H14.2151C14.363 8.68196 14.4842 8.68697 14.4846 8.69308C14.485 8.69919 14.4464 8.87924 14.3989 9.0932L14.3124 9.4822L14.0513 9.48235L13.7903 9.48252L13.6427 10.2599C13.5616 10.6874 13.4921 11.0693 13.4883 11.1084C13.4739 11.2577 13.5371 11.3721 13.6602 11.4193C13.7149 11.4402 13.7684 11.4459 13.8998 11.4444L14.0689 11.4425L14.0609 11.4889C14.0565 11.5143 14.041 11.6809 14.0265 11.859L14.0002 12.1827L13.9176 12.2241C13.6969 12.3347 13.2877 12.3914 13.0668 12.3421C12.7641 12.2744 12.5403 12.0842 12.4534 11.8206C12.4225 11.7268 12.4182 11.6865 12.4195 11.5056L12.421 11.298L12.7661 9.5787C12.9559 8.63305 13.1185 7.82433 13.1274 7.78153L13.1435 7.70371H13.6499H14.1563L14.1484 7.73706ZM3.37059 7.9001C3.36903 7.97138 3.55477 10.5183 3.56314 10.5403C3.57071 10.5602 3.74428 10.193 4.17615 9.24333C4.50748 8.51474 4.7849 7.9103 4.79261 7.9001C4.80355 7.88567 4.98929 7.88158 5.63269 7.88158C6.08703 7.88158 6.45848 7.88324 6.45815 7.88528C6.45783 7.88733 6.26804 8.88947 6.03641 10.1123L5.61526 12.3356L5.0898 12.3395C4.80079 12.3416 4.56433 12.3409 4.56433 12.3378C4.56433 12.3347 4.69527 11.6428 4.85532 10.8001C5.01537 9.95753 5.14457 9.263 5.14247 9.25676C5.14035 9.25051 4.82586 9.94069 4.44359 10.7905L3.74857 12.3356H3.26519H2.78183L2.64779 10.7465C2.57409 9.87259 2.50962 9.16558 2.50456 9.17542C2.4995 9.18528 2.35861 9.90201 2.19147 10.7682L1.8876 12.343H1.38375C1.10664 12.343 0.879907 12.3382 0.879907 12.3322C0.879907 12.3194 1.72819 7.96317 1.74009 7.91493L1.74831 7.88158H2.55965C3.19901 7.88158 3.37091 7.8855 3.37059 7.9001ZM8.42434 8.64349C8.64682 8.67297 8.7929 8.71463 8.96475 8.79761C9.16 8.89186 9.32083 9.04819 9.40997 9.23038C9.50153 9.41748 9.51985 9.50088 9.52775 9.76647C9.53639 10.0568 9.53914 10.0392 9.28345 11.324L9.08063 12.343H8.60526H8.12988L8.06823 12.246C8.03433 12.1927 8.00233 12.151 7.99714 12.1534C7.99196 12.1558 7.93065 12.1862 7.86092 12.221C7.72081 12.2909 7.60957 12.318 7.35523 12.3443C6.97784 12.3833 6.73225 12.3336 6.48342 12.168C6.29695 12.0438 6.16189 11.8517 6.10642 11.6315C6.0735 11.5009 6.08527 11.2239 6.13034 11.0684C6.27929 10.5545 6.6331 10.2093 7.17111 10.0528C7.45022 9.97161 7.612 9.95236 8.04698 9.94855L8.44934 9.94502L8.46248 9.89525C8.48414 9.81328 8.46667 9.64127 8.43086 9.58368C8.3202 9.40578 7.92512 9.38297 6.96892 9.49925C6.76136 9.52449 6.58823 9.54183 6.58415 9.5378C6.5801 9.53375 6.6113 9.35392 6.65353 9.13817L6.73029 8.74588L6.87421 8.72114C7.26888 8.65328 7.51343 8.63181 7.96534 8.62535C8.16216 8.62254 8.31057 8.6284 8.42434 8.64349ZM12.0671 8.65918C12.2077 8.69123 12.4105 8.7545 12.4105 8.76635C12.4105 8.77128 12.3589 8.94129 12.2957 9.14413C12.2021 9.44497 12.1767 9.51133 12.1578 9.50413C12.0723 9.47152 11.807 9.44774 11.5155 9.44657L11.1948 9.4453L11.1094 9.48698C10.9985 9.54111 10.9572 9.59811 10.9572 9.6973C10.9572 9.77531 11.003 9.87598 11.0631 9.93004C11.0786 9.94391 11.1906 10.0053 11.312 10.0665C11.8352 10.3301 12.0811 10.5072 12.1705 10.6849C12.3047 10.9518 12.2855 11.3604 12.1233 11.6908C12.035 11.8705 11.8469 12.057 11.6572 12.1528C11.5054 12.2296 11.3862 12.2705 11.2023 12.309C11.0162 12.348 10.1261 12.3477 9.87467 12.3086C9.7095 12.2829 9.46561 12.2315 9.44286 12.2175C9.43414 12.2121 9.53588 11.6211 9.56839 11.4884L9.57623 11.4564L9.66808 11.484C9.88913 11.5505 10.2566 11.5764 10.6862 11.5558C10.9437 11.5434 11.0079 11.5359 11.054 11.5125C11.1596 11.459 11.2122 11.354 11.1971 11.227C11.188 11.151 11.1339 11.0514 11.0864 11.0234C10.88 10.9014 10.5611 10.7299 10.3556 10.6304C10.0639 10.489 9.99784 10.436 9.92154 10.2816C9.84976 10.1364 9.82515 9.99654 9.8357 9.79361C9.84636 9.5882 9.88771 9.39545 9.94787 9.27071C10.1052 8.94437 10.4918 8.71887 11.0215 8.6445C11.2315 8.615 11.9154 8.6246 12.0671 8.65918ZM25.6714 8.65697C26.3393 8.78357 26.6702 9.16743 26.6706 9.81585C26.6707 10.0534 26.6608 10.1131 26.4228 11.3092L26.2172 12.343L25.7392 12.3427L25.2612 12.3424L25.2047 12.2464C25.1736 12.1935 25.1416 12.1503 25.1335 12.1503C25.1255 12.1503 25.0938 12.1668 25.0632 12.1869C24.8948 12.2977 24.6543 12.3472 24.2767 12.349C24.0294 12.3502 24.0199 12.3491 23.8929 12.3041C23.4218 12.1374 23.1689 11.7517 23.2261 11.2869C23.301 10.6778 23.692 10.2315 24.3066 10.0537C24.5912 9.97134 24.7502 9.95236 25.1867 9.94864L25.5894 9.94521L25.6025 9.85594C25.6356 9.6299 25.549 9.4936 25.348 9.4552C25.1046 9.4087 24.7559 9.42099 24.1078 9.49889C23.9 9.52385 23.7263 9.54066 23.7218 9.53622C23.7152 9.5296 23.7937 9.09966 23.8537 8.81394L23.868 8.7458L24.0053 8.72188C24.4321 8.6475 24.6988 8.62668 25.1792 8.63024C25.4444 8.63219 25.5795 8.63953 25.6714 8.65697ZM16.6096 8.67389C17.2212 8.81146 17.5249 9.13344 17.603 9.72692C17.6307 9.93771 17.5972 10.3941 17.5341 10.6644L17.5264 10.6978H16.4247H15.3231L15.3131 10.7991C15.3004 10.9267 15.3244 11.0799 15.3745 11.1908C15.4406 11.3373 15.5704 11.4271 15.7891 11.4779C15.9955 11.5257 16.7082 11.5092 17.212 11.4448C17.3054 11.4329 17.3853 11.4266 17.3897 11.431C17.3986 11.4398 17.2644 12.1101 17.2438 12.1599C17.22 12.2174 16.9678 12.2831 16.6246 12.3212C16.3582 12.3507 15.7959 12.35 15.5912 12.3198C15.0565 12.2409 14.6647 11.9679 14.4441 11.5204C14.3131 11.2546 14.2545 10.9888 14.2547 10.6607C14.2549 10.4713 14.261 10.412 14.296 10.2605C14.3522 10.0176 14.411 9.84639 14.5062 9.64905C14.6113 9.43117 14.7157 9.28171 14.8717 9.12575C15.0097 8.9878 15.12 8.90735 15.282 8.82664C15.4667 8.73461 15.5625 8.70605 15.8861 8.64657C15.9722 8.63074 16.5077 8.65096 16.6096 8.67389ZM28.2294 8.82909L28.2721 9.00587L28.3608 8.92614C28.463 8.83425 28.6397 8.74385 28.8079 8.69742C28.9295 8.66387 29.2366 8.63791 29.2364 8.6612C29.2364 8.66855 29.1772 8.88122 29.1049 9.1338L28.9734 9.59304L28.8104 9.61178C28.6779 9.62702 28.6274 9.64025 28.5409 9.68237C28.3497 9.77556 28.1821 9.99205 28.0589 10.305C27.9705 10.5294 27.9557 10.5952 27.7883 11.5018L27.633 12.3428L27.1221 12.3429C26.8411 12.343 26.6112 12.3399 26.6112 12.3361C26.6112 12.3323 26.7656 11.5083 26.9543 10.5051C27.143 9.5018 27.2974 8.67451 27.2974 8.66664C27.2974 8.65774 27.4661 8.65232 27.742 8.65232H28.1867L28.2294 8.82909ZM19.1607 8.85895L19.2022 9.03596L19.2741 8.97351C19.3765 8.88451 19.4951 8.81665 19.6331 8.76812C19.7621 8.72278 19.9813 8.68213 20.0973 8.68202C20.1587 8.68198 20.1681 8.68574 20.1616 8.7079C20.1544 8.7328 19.9568 9.4753 19.9269 9.58981L19.9125 9.64539H19.8263C19.4211 9.64539 19.1724 9.86387 18.9669 10.4002C18.9021 10.5696 18.8905 10.6231 18.7215 11.5391C18.6413 11.9732 18.5724 12.3318 18.5683 12.3359C18.5641 12.34 18.336 12.3416 18.0612 12.3395L17.5617 12.3356L17.8792 10.6459C18.0538 9.71654 18.2078 8.89448 18.2215 8.81907L18.2465 8.68196H18.6828H19.1192L19.1607 8.85895ZM16.0482 9.36394C15.7469 9.41112 15.54 9.58762 15.4286 9.89257C15.4095 9.94486 15.3938 9.99736 15.3938 10.0092C15.3938 10.0277 15.482 10.0308 16.0194 10.0308H16.645L16.6554 9.96204C16.6712 9.85708 16.6532 9.68783 16.6174 9.60511C16.5782 9.5146 16.4981 9.43454 16.4068 9.39447C16.326 9.35906 16.1663 9.34546 16.0482 9.36394ZM30.8342 9.51969C30.5414 9.60136 30.2675 9.90021 30.1372 10.2804C30.0488 10.5381 30.0399 10.7021 30.1032 10.9053C30.161 11.0906 30.304 11.2464 30.4657 11.2999C30.5736 11.3357 30.7695 11.322 30.8777 11.2711C31.1126 11.1607 31.3679 10.7885 31.4357 10.4575C31.4829 10.2273 31.456 9.90066 31.3765 9.73931C31.2828 9.54895 31.057 9.45753 30.8342 9.51969ZM7.65256 10.6839C7.25555 10.7872 6.99912 11.2043 7.1981 11.4231C7.27866 11.5118 7.37935 11.5488 7.54021 11.549C7.7486 11.5493 7.92731 11.4786 8.0655 11.3413C8.16874 11.2387 8.19316 11.1811 8.24294 10.9226C8.2762 10.7499 8.28015 10.7079 8.2641 10.698C8.22999 10.6771 8.02921 10.6533 7.89387 10.6541C7.81545 10.6546 7.71981 10.6664 7.65256 10.6839ZM24.8063 10.6768C24.5081 10.7549 24.2671 11.0052 24.2671 11.2367C24.2671 11.4317 24.4269 11.5507 24.6869 11.5494C24.9614 11.5481 25.2177 11.3985 25.3127 11.1844C25.3439 11.114 25.426 10.7157 25.4122 10.702C25.4074 10.6973 25.3548 10.6847 25.2951 10.6741C25.1517 10.6486 24.9086 10.6499 24.8063 10.6768Z" fill="white"/>
</svg>
