<svg width="45" height="14" viewBox="0 0 45 14" fill="none" xmlns="http://www.w3.org/2000/svg">
<path fill-rule="evenodd" clip-rule="evenodd" d="M0 7V14H1.96555C3.0466 14 3.94929 13.9929 3.97152 13.9842C4.00814 13.9699 4.01195 13.5789 4.01195 9.8209V5.67339H4.16215C4.33075 5.67339 4.35488 5.69121 4.39244 5.84354C4.41759 5.94549 4.45758 6.08995 4.58675 6.54508C4.62332 6.67388 4.66339 6.82025 4.67583 6.87034C4.72942 7.08613 4.80347 7.34261 4.82011 7.37004C4.83002 7.38638 4.84697 7.44165 4.85775 7.49283C4.86856 7.54401 4.889 7.62689 4.90319 7.67698C4.91739 7.72707 4.94049 7.80903 4.95452 7.85912C4.96858 7.90921 5.00323 8.03216 5.03157 8.13234C5.05991 8.23252 5.14076 8.5194 5.21124 8.76985C5.28174 9.0203 5.34966 9.26034 5.36218 9.30327C5.3747 9.3462 5.39964 9.43402 5.41763 9.49843C5.43562 9.56283 5.46491 9.66269 5.48277 9.72038C5.50061 9.77804 5.52345 9.87172 5.53355 9.92855C5.54364 9.98535 5.5639 10.0553 5.57857 10.0839C5.59324 10.1125 5.61394 10.1769 5.62462 10.227C5.6501 10.3467 5.68536 10.4734 5.8384 10.9946C5.88882 11.1664 5.95222 11.3888 5.97931 11.489C6.03006 11.6767 6.24849 12.4517 6.33502 12.751C6.3619 12.844 6.39024 12.9494 6.39798 12.9852C6.43089 13.1374 6.51553 13.4296 6.54039 13.477C6.55521 13.5051 6.56732 13.5525 6.56732 13.5823C6.56732 13.6121 6.57775 13.6568 6.59048 13.6816C6.60323 13.7065 6.6275 13.7795 6.64442 13.8439C6.66134 13.9083 6.6883 13.9696 6.70432 13.9801C6.72031 13.9906 7.33859 13.9994 8.07827 13.9996C9.51495 14 9.45984 14.0051 9.48636 13.8699C9.49339 13.8341 9.55183 13.6234 9.61625 13.4015C9.68067 13.1797 9.7503 12.9338 9.77103 12.8551C9.79173 12.7764 9.84411 12.589 9.88743 12.4388C9.93074 12.2885 9.97919 12.1187 9.99508 12.0615C10.0416 11.894 10.0738 11.7823 10.1078 11.6712C10.1253 11.6139 10.1536 11.5144 10.1707 11.45C10.1879 11.3856 10.2107 11.3036 10.2215 11.2678C10.2323 11.2321 10.254 11.1559 10.2697 11.0987C10.2854 11.0415 10.3629 10.7663 10.4418 10.4872C10.5208 10.2081 10.6006 9.92126 10.6193 9.8497C10.638 9.77815 10.6768 9.63764 10.7055 9.53746C10.7342 9.43728 10.7838 9.25956 10.8157 9.14254C10.8476 9.0255 10.8822 8.92111 10.8926 8.91051C10.903 8.89993 10.9115 8.86932 10.9115 8.8425C10.9115 8.8157 10.935 8.71518 10.9638 8.61916C11.0265 8.40964 11.0718 8.24993 11.1426 7.98923C11.1717 7.88189 11.2165 7.72382 11.2421 7.63795C11.2677 7.55208 11.3374 7.30033 11.3969 7.0785C11.4565 6.85668 11.52 6.6342 11.5382 6.58411C11.5563 6.53402 11.5965 6.39351 11.6275 6.27186C11.6811 6.06177 11.7285 5.90432 11.7861 5.74495C11.8103 5.6782 11.822 5.67339 11.9595 5.67339C12.0711 5.67339 12.1108 5.68354 12.1227 5.71494C12.1313 5.73782 12.1382 7.60048 12.1379 9.85421C12.1376 12.1079 12.144 13.9627 12.152 13.976C12.17 14.0056 16.0467 14.0081 16.0926 13.9785C16.1181 13.962 16.1232 12.5463 16.1181 6.98587L16.1117 0.0138949L14.1312 0.00634873C12.0553 -0.00156155 12.1248 -0.00434538 11.6014 0.107569C11.4123 0.148032 11.0797 0.29458 10.8762 0.427103C10.5962 0.609482 10.2683 0.977518 10.12 1.2759C10.088 1.3403 10.0508 1.41474 10.0375 1.44136C10.0006 1.51474 9.9114 1.7961 9.88776 1.9134C9.87624 1.97065 9.81874 2.19898 9.75996 2.42081C9.70119 2.64263 9.6325 2.90851 9.60731 3.01163C9.58211 3.11478 9.55456 3.21059 9.54608 3.22456C9.53759 3.23856 9.51881 3.30639 9.5043 3.37532C9.48981 3.44425 9.46702 3.54459 9.45365 3.59824C9.44029 3.65192 9.41867 3.73974 9.40561 3.7934C9.39255 3.84708 9.35149 4.00221 9.31436 4.13817C9.27723 4.27413 9.23719 4.42635 9.2254 4.47644C9.16558 4.73035 9.11862 4.91465 9.09324 4.9949C9.06408 5.08706 8.98078 5.40962 8.94485 5.56931C8.92635 5.65158 8.78419 6.2039 8.66023 6.67518C8.63389 6.77536 8.57302 7.00955 8.52498 7.1956C8.47693 7.38165 8.42966 7.55408 8.41992 7.57878C8.41016 7.60347 8.38149 7.71471 8.35614 7.82597C8.33082 7.93724 8.29458 8.08681 8.2756 8.15836L8.2411 8.28847L8.07068 8.29611C7.92484 8.30265 7.89842 8.29703 7.88736 8.25708C7.84282 8.0963 7.68068 7.47415 7.63785 7.29968C7.60974 7.18519 7.5744 7.05142 7.5593 7.00239C7.53231 6.91481 7.51527 6.84853 7.36389 6.24236C7.32231 6.07588 7.27585 5.90024 7.26065 5.85205C7.24545 5.80388 7.21652 5.69421 7.19638 5.60834C7.17622 5.52247 7.1406 5.38196 7.11719 5.29609C7.05165 5.05545 6.97746 4.76933 6.92492 4.5545C6.89868 4.44717 6.85225 4.26567 6.82176 4.15118C6.79128 4.03669 6.75762 3.90203 6.74699 3.85194C6.73636 3.80185 6.69617 3.64378 6.65768 3.50066C6.5905 3.25094 6.54489 3.07366 6.45343 2.70703C6.43025 2.61401 6.38809 2.45008 6.35975 2.34274C6.33141 2.23541 6.28703 2.06562 6.26114 1.96544C6.13677 1.48445 5.99147 1.17161 5.76131 0.88923C5.42177 0.472718 4.98754 0.208061 4.42081 0.0723112C4.18137 0.0149356 4.1495 0.0140512 2.08902 0.0070777L0 0V7ZM17.8791 0.0182402C17.8698 0.0277638 17.8621 3.17046 17.8621 7.002C17.8621 13.3305 17.8658 13.9699 17.9025 13.9842C17.9248 13.9929 18.7755 14 19.793 14C21.3025 14 21.6607 13.9934 21.7394 13.9641C21.7924 13.9443 21.8875 13.9138 21.9507 13.8962C22.2462 13.8142 22.5952 13.5991 22.8537 13.3398C23.1529 13.0395 23.2786 12.8347 23.5105 12.2696C23.5692 12.1265 23.6386 11.9612 23.6647 11.9023C23.6907 11.8434 23.7369 11.7263 23.7673 11.6421C23.7976 11.5579 23.8325 11.4779 23.8448 11.4643C23.8572 11.4507 23.8672 11.4236 23.8672 11.4041C23.8672 11.3846 23.8948 11.3079 23.9284 11.2337C24.0038 11.0673 24.0929 10.8512 24.1985 10.5783C24.2429 10.4638 24.2953 10.335 24.3152 10.2921C24.335 10.2491 24.3904 10.1145 24.4382 9.99282C24.5321 9.75397 24.7807 9.14176 24.9454 8.74383C25.0742 8.43236 25.0764 8.427 25.1581 8.22341C25.1954 8.13039 25.2406 8.01915 25.2585 7.97622C25.2764 7.93328 25.3026 7.86888 25.3168 7.8331C25.331 7.79733 25.3552 7.73878 25.3708 7.703C25.3863 7.66722 25.4231 7.5743 25.4524 7.4965C25.4817 7.4187 25.5324 7.29575 25.5649 7.22328C25.5975 7.15082 25.6847 6.93929 25.7587 6.75325C25.9773 6.20333 26.0889 5.92839 26.1474 5.79587L26.2024 5.67115L26.3572 5.67877L26.5121 5.6864L26.5248 9.83669L26.5376 13.987L28.4797 13.9941C29.5478 13.9981 30.4477 13.995 30.4793 13.9871L30.5369 13.973L30.5304 6.99342L30.524 0.0138949L28.6202 0.00684345C27.027 0.000936757 26.7019 0.00577656 26.6271 0.036559C26.5779 0.0568031 26.4859 0.0883401 26.4226 0.106659C26.2683 0.151388 25.9538 0.320965 25.7966 0.444251C25.4983 0.678124 25.2426 1.01163 25.0645 1.39892C25.0104 1.51669 24.9661 1.61927 24.9661 1.62689C24.9661 1.63451 24.9415 1.69623 24.9114 1.76407C24.7868 2.04551 24.7396 2.1586 24.6592 2.36876C24.6126 2.49041 24.5662 2.60165 24.556 2.61596C24.5457 2.63027 24.5058 2.72395 24.4672 2.82413C24.4286 2.92431 24.3659 3.07653 24.3279 3.1624C24.2899 3.24826 24.244 3.3595 24.2258 3.40959C24.2076 3.45968 24.1723 3.5475 24.1472 3.60475C24.0426 3.84356 23.9957 3.95504 23.9062 4.1772C23.8542 4.306 23.7941 4.45237 23.7726 4.50246C23.751 4.55255 23.7188 4.62866 23.7009 4.67159C23.683 4.71453 23.6338 4.83162 23.5915 4.9318C23.5492 5.03198 23.4722 5.21933 23.4204 5.34813C23.3253 5.58468 23.3009 5.64333 23.2094 5.85553C23.1817 5.91993 23.116 6.07801 23.0635 6.20681C23.0111 6.33561 22.9522 6.47613 22.9326 6.51906C22.9131 6.56199 22.8044 6.82545 22.6911 7.10453C22.4041 7.81169 22.2267 8.23052 22.1975 8.27009C22.1807 8.29281 22.122 8.30127 22.0169 8.29611L21.8613 8.28847L21.8551 4.16859C21.8517 1.90268 21.8424 0.0379642 21.8344 0.0247978C21.8178 -0.00257597 17.906 -0.0090815 17.8791 0.0182402ZM31.7785 0.0230802C31.7403 0.0859201 31.9402 0.911322 32.0815 1.27434C32.1173 1.36647 32.1467 1.45109 32.1467 1.46234C32.1467 1.51797 32.426 2.10408 32.5954 2.40387C32.7594 2.69415 32.78 2.72738 32.92 2.92691C33.3223 3.5004 33.7586 3.97983 34.2086 4.3428C34.6455 4.69527 35.2566 5.06773 35.6926 5.2473C35.7385 5.26622 35.8133 5.29908 35.8587 5.32037C36.0178 5.39481 36.5318 5.55185 36.7591 5.59548C36.8435 5.61167 36.954 5.63581 37.0049 5.64916C37.0557 5.66249 37.1419 5.67362 37.1965 5.67391C37.2511 5.67417 37.3878 5.69134 37.5002 5.71203C37.7831 5.76407 44.813 5.77065 44.878 5.71892C44.9235 5.68268 45.0004 5.08394 45 4.76888C44.9995 4.34402 44.8895 3.68359 44.739 3.20143C44.4148 2.16284 43.7301 1.25061 42.8409 0.672764C42.6564 0.552835 42.2254 0.332023 42.1127 0.299654C42.0775 0.289584 42.0143 0.26705 41.9721 0.249642C41.8255 0.18904 41.6389 0.136296 41.4738 0.108819C41.3825 0.0935965 41.2042 0.0630222 41.0777 0.0408526C40.8759 0.00549055 40.2928 0.000572664 36.3198 0.000702767C33.8295 0.00080685 31.7859 0.0108765 31.7785 0.0230802ZM32.3118 6.40847C32.3051 6.42637 32.3026 8.13885 32.3062 10.214L32.3128 13.987L34.2549 13.9941C35.323 13.9981 36.2228 13.995 36.2543 13.9872L36.3117 13.9731L36.3182 11.7552L36.3247 9.53746L38.7012 9.52343C41.4404 9.50727 41.3603 9.5136 42.0615 9.25857C42.8578 8.96901 43.6452 8.33286 44.1371 7.58153C44.4059 7.17106 44.7447 6.46517 44.7047 6.39918C44.6965 6.38565 42.1059 6.37595 38.5073 6.37595C33.5841 6.37595 32.3215 6.38258 32.3118 6.40847Z" fill="white"/>
</svg>
