<svg width="180" height="49" viewBox="0 0 180 49" fill="none" xmlns="http://www.w3.org/2000/svg">
<path fill-rule="evenodd" clip-rule="evenodd" d="M0.948486 22.4692V44.8782L23.2687 22.4873C35.5449 10.1723 45.589 0.0881927 45.589 0.078345C45.589 0.0684253 35.5449 0.0603027 23.2687 0.0603027H0.948486V22.4692ZM159.555 10.5586L150.741 21.0512L150.723 10.5916L150.705 0.132184H145.833H140.961V24.5359V48.9396H145.833H150.705L150.723 38.1479L150.741 27.3562L159.591 38.1468L168.44 48.9374L174.232 48.9385C177.42 48.9391 180.013 48.9119 180 48.878C179.987 48.8442 175.252 43.1143 169.479 36.145C163.705 29.1756 158.982 23.4506 158.982 23.4227C158.982 23.3948 163.305 18.3614 168.59 12.2373C173.874 6.11322 178.399 0.868033 178.645 0.581442L179.093 0.0603027L173.731 0.063178L168.368 0.0660532L159.555 10.5586ZM59.7765 24.5324V48.9396H64.649H69.5214V39.8107V30.6818L73.3012 30.6815C78.2052 30.6811 79.5205 30.5862 81.8735 30.0628C85.1942 29.3241 87.8299 27.9702 89.8337 25.9735C92.3724 23.444 93.6692 19.9753 93.6768 15.6945C93.6796 14.1044 93.5866 13.027 93.3393 11.7834C92.1404 5.75675 87.8418 1.8917 80.863 0.565629C78.8373 0.180776 78.9057 0.183148 69.002 0.153102L59.7765 0.12514V24.5324ZM99.8311 24.5359V48.9396L108.842 48.939C113.984 48.9386 118.36 48.9076 119.034 48.8667C122.609 48.6499 125.49 47.9241 127.812 46.6551C129.323 45.8292 130.117 45.2259 131.251 44.0419C133.421 41.7776 134.6 38.7991 134.794 35.0925C134.86 33.8404 134.788 32.1662 134.619 31.0377C133.685 24.794 129.514 20.9078 122.438 19.687C120.581 19.3667 119.662 19.3192 114.466 19.2748L109.504 19.2326V13.6358V8.03913H120.109H130.714V4.08566V0.132184H115.273H99.8311V24.5359ZM27.2455 26.5486L4.92536 48.9396H27.2635H49.6016V26.5486C49.6016 14.2335 49.5935 4.15754 49.5836 4.15754C49.5738 4.15754 39.5216 14.2335 27.2455 26.5486ZM78.1872 8.10505C80.6655 8.56386 82.2082 9.48136 83.1334 11.0467C83.7856 12.1503 84.0567 13.2637 84.1165 15.0835C84.2111 17.9673 83.5739 19.8722 82.031 21.3177C81.075 22.2134 79.9647 22.7545 78.3349 23.1193C77.5144 23.3029 77.4939 23.3038 73.5162 23.3312L69.5214 23.3586V15.6192V7.87963L73.4445 7.9165C77.035 7.95021 77.4371 7.96617 78.1872 8.10505ZM118.964 26.7676C121.874 27.1747 123.733 28.2997 124.66 30.2145C125.663 32.2853 125.662 35.5473 124.657 37.6183C123.767 39.455 121.984 40.6055 119.367 41.034C118.566 41.1651 118.141 41.1764 114.001 41.1764H109.504V33.9164V26.6564H113.837C117.356 26.6564 118.319 26.6772 118.964 26.7676Z" fill="#2B304E"/>
</svg>
