<svg width="181" height="55" viewBox="0 0 181 55" fill="none" xmlns="http://www.w3.org/2000/svg">
<path d="M80.4285 31.4151V50.7664H76.6679V42.8324H69.286V50.7664H65.5254V31.4151H69.286V39.0451H76.6679V31.4151H80.4285Z" fill="#2B304E"/>
<path d="M91.0924 51.0981C89.4055 51.0981 87.8812 50.665 86.5193 49.7988C85.1729 48.9326 84.1128 47.7439 83.339 46.2327C82.5807 44.703 82.2016 42.989 82.2016 41.0908C82.2016 39.1925 82.5807 37.4878 83.339 35.9765C84.1128 34.4468 85.1729 33.2489 86.5193 32.3827C87.8812 31.5165 89.4055 31.0834 91.0924 31.0834C92.7792 31.0834 94.2958 31.5165 95.6422 32.3827C96.9886 33.2489 98.0487 34.4468 98.8225 35.9765C99.5963 37.4878 99.9831 39.1925 99.9831 41.0908C99.9831 42.989 99.5963 44.703 98.8225 46.2327C98.0487 47.7439 96.9886 48.9326 95.6422 49.7988C94.2958 50.665 92.7792 51.0981 91.0924 51.0981ZM91.0924 47.2832C92.0519 47.2832 92.9185 47.0252 93.6923 46.5091C94.4661 45.9747 95.0696 45.2375 95.5029 44.2976C95.9517 43.3576 96.1761 42.2887 96.1761 41.0908C96.1761 39.8928 95.9517 38.8239 95.5029 37.884C95.0696 36.9441 94.4661 36.2161 93.6923 35.7001C92.9185 35.1656 92.0519 34.8984 91.0924 34.8984C90.1329 34.8984 89.2662 35.1656 88.4924 35.7001C87.7187 36.2161 87.1074 36.9441 86.6586 37.884C86.2253 38.8239 86.0086 39.8928 86.0086 41.0908C86.0086 42.2887 86.2253 43.3576 86.6586 44.2976C87.1074 45.2375 87.7187 45.9747 88.4924 46.5091C89.2662 47.0252 90.1329 47.2832 91.0924 47.2832Z" fill="#2B304E"/>
<path d="M112.978 40.6761C113.968 41.0263 114.727 41.5976 115.253 42.3901C115.779 43.1826 116.042 44.1593 116.042 45.3204C116.042 47.0344 115.493 48.3705 114.394 49.3289C113.311 50.2872 111.755 50.7664 109.728 50.7664H101.719V31.4151H109.287C111.175 31.4151 112.645 31.8483 113.698 32.7145C114.75 33.5807 115.276 34.8154 115.276 36.4188C115.276 37.3772 115.075 38.225 114.673 38.9621C114.27 39.6809 113.705 40.2522 112.978 40.6761ZM105.457 39.4321H108.962C109.782 39.4321 110.401 39.2386 110.819 38.8516C111.237 38.4461 111.446 37.8564 111.446 37.0823C111.446 36.3267 111.229 35.7461 110.796 35.3407C110.378 34.9352 109.767 34.7325 108.962 34.7325H105.457V39.4321ZM109.589 47.4491C111.353 47.4491 112.235 46.6197 112.235 44.961C112.235 43.3576 111.353 42.5559 109.589 42.5559H105.457V47.4491H109.589Z" fill="#2B304E"/>
<path d="M125.609 51.0981C123.922 51.0981 122.398 50.665 121.036 49.7988C119.689 48.9326 118.629 47.7439 117.856 46.2327C117.097 44.703 116.718 42.989 116.718 41.0908C116.718 39.1925 117.097 37.4878 117.856 35.9765C118.629 34.4468 119.689 33.2489 121.036 32.3827C122.398 31.5165 123.922 31.0834 125.609 31.0834C127.296 31.0834 128.812 31.5165 130.159 32.3827C131.505 33.2489 132.565 34.4468 133.339 35.9765C134.113 37.4878 134.5 39.1925 134.5 41.0908C134.5 42.989 134.113 44.703 133.339 46.2327C132.565 47.7439 131.505 48.9326 130.159 49.7988C128.812 50.665 127.296 51.0981 125.609 51.0981ZM125.609 47.2832C126.568 47.2832 127.435 47.0252 128.209 46.5091C128.983 45.9747 129.586 45.2375 130.019 44.2976C130.468 43.3576 130.693 42.2887 130.693 41.0908C130.693 39.8928 130.468 38.8239 130.019 37.884C129.586 36.9441 128.983 36.2161 128.209 35.7001C127.435 35.1656 126.568 34.8984 125.609 34.8984C124.649 34.8984 123.783 35.1656 123.009 35.7001C122.235 36.2161 121.624 36.9441 121.175 37.884C120.742 38.8239 120.525 39.8928 120.525 41.0908C120.525 42.2887 120.742 43.3576 121.175 44.2976C121.624 45.2375 122.235 45.9747 123.009 46.5091C123.783 47.0252 124.649 47.2832 125.609 47.2832Z" fill="#2B304E"/>
<path d="M143.92 51.0981C142.264 51.0981 140.763 50.6743 139.416 49.8265C138.085 48.9603 137.033 47.7716 136.259 46.2603C135.501 44.7307 135.122 43.0075 135.122 41.0908C135.122 39.1741 135.501 37.4601 136.259 35.9489C137.033 34.4192 138.085 33.2305 139.416 32.3827C140.763 31.5165 142.271 31.0834 143.943 31.0834C145.351 31.0834 146.62 31.3783 147.75 31.968C148.895 32.5578 149.855 33.4056 150.628 34.5114L148.214 37.1652C147.115 35.654 145.753 34.8984 144.129 34.8984C143.123 34.8984 142.225 35.1656 141.436 35.7001C140.647 36.2161 140.027 36.9441 139.579 37.884C139.145 38.8239 138.929 39.8928 138.929 41.0908C138.929 42.2887 139.145 43.3576 139.579 44.2976C140.027 45.2375 140.647 45.9747 141.436 46.5091C142.225 47.0252 143.123 47.2832 144.129 47.2832C145.753 47.2832 147.115 46.5183 148.214 44.9887L150.628 47.6426C149.855 48.7668 148.895 49.6238 147.75 50.2135C146.605 50.8033 145.328 51.0981 143.92 51.0981Z" fill="#2B304E"/>
<path d="M164.179 35.0642H158.979V50.7664H155.265V35.0642H150.089V31.4151H164.179V35.0642Z" fill="#2B304E"/>
<path d="M165.38 31.4151H169.117V44.0211L176.87 31.4151H180.399V50.7664H176.685V38.1881L168.931 50.7664H165.38V31.4151Z" fill="#2B304E"/>
<path fill-rule="evenodd" clip-rule="evenodd" d="M25.4348 0.99957C24.6375 1.95772 23.6122 4.75638 23.2718 6.90307C21.5778 17.5888 33.8278 27.1546 50.2586 27.9769C53.7381 28.151 55.2763 28.0859 55.2763 27.7652C55.2763 27.511 54.3637 27.1903 53.2479 27.0524C45.647 26.1129 39.086 23.4059 35.185 19.5992C32.0509 16.5412 30.8633 14.1935 30.6003 10.5351C30.368 7.30889 31.1315 4.67419 32.9093 2.56711C33.8808 1.41605 33.8962 1.32279 33.1518 1.08687C31.3198 0.507294 25.8956 0.445971 25.4348 0.99957ZM19.3926 1.88831C18.5637 2.19279 16.8914 2.94441 15.6761 3.55848C13.78 4.51663 13.4252 4.89435 13.1758 6.21916C12.6339 9.10085 13.3137 13.1604 14.8946 16.4803C19.7167 26.6052 34.2818 34.0447 50.3252 34.577C55.5838 34.7512 55.6854 33.9302 50.4845 33.291C39.3729 31.9249 29.2901 27.0281 24.433 20.6396C20.169 15.0303 19.2205 8.93946 21.7606 3.47246L22.782 1.27424L21.8408 1.30405C21.3233 1.32066 20.2215 1.58341 19.3926 1.88831ZM35.0654 3.09345C32.9609 5.92064 32.5002 9.56971 33.8693 12.5591C36.1159 17.464 44.576 21.6825 52.2157 21.7076C55.2434 21.7174 54.9573 20.887 51.6772 20.1443C48.3613 19.3931 44.4235 17.2447 42.7149 15.2539C40.2065 12.3313 39.7406 8.21382 41.6448 5.79928L42.4621 4.76319L41.076 3.95409C40.3133 3.50865 38.8793 2.82389 37.889 2.43169L36.089 1.71883L35.0654 3.09345ZM65.0982 25.105L70.2227 24.95V18.3081L72.6782 18.2987C77.8573 18.2791 80.4674 15.8978 80.4699 11.1901C80.4716 8.8479 80.3222 8.37351 79.1743 7.07C77.5618 5.23844 75.2686 4.681 69.3477 4.681H65.0982V25.105ZM82.7853 5.25717C82.6777 5.53653 82.6418 10.0722 82.705 15.3369L82.8203 24.9087H87.9448L90.5925 20.0114C92.0482 17.318 93.4301 14.8268 93.6633 14.4754C93.9545 14.036 94.0946 15.5958 94.1117 19.4791L94.1369 25.1216H99.2614V4.64055L93.9234 4.89393L88.3718 15.477L87.9448 4.89393L85.4629 4.82196C83.876 4.77596 82.91 4.9331 82.7853 5.25717ZM107.233 5.00039C106.829 5.67195 100.97 23.9543 100.97 24.5437C100.97 25.03 101.501 25.1365 103.425 25.0364L105.88 24.9087L107.135 21.289H113.176L114.204 25.1216H116.768C118.754 25.1216 119.332 24.9785 119.332 24.4879C119.332 24.1396 118.771 22.0793 118.084 19.9101C117.398 17.7408 116.044 13.427 115.076 10.3235L113.317 4.681H110.371C108.751 4.681 107.339 4.82494 107.233 5.00039ZM43.3111 7.47413C42.1931 10.8519 45.0987 13.8507 50.6856 15.084C51.3313 15.2266 51.86 15.1858 51.86 14.9928C51.86 13.697 45.2639 5.95854 44.1596 5.95854C43.9687 5.95854 43.587 6.64032 43.3111 7.47413ZM9.3209 8.00302C5.92807 10.722 2.18122 17.5496 1.25668 22.6977C-1.18214 36.2745 6.37432 48.9404 19.6228 53.4829C22.5681 54.493 23.7066 54.6531 27.9458 54.6552C32.1252 54.6578 33.3705 54.4887 36.3064 53.5212C42.2055 51.5776 47.8257 47.2438 50.8932 42.2725L52.1956 40.1611L47.1792 39.4589C36.4541 37.9578 27.9441 34.5059 20.6195 28.6855C14.3595 23.7112 11.0154 17.8609 10.5008 10.9839C10.2237 7.28207 10.2232 7.28036 9.3209 8.00302ZM74.8347 9.87632C75.4014 10.4414 75.5094 12.2849 75.0205 13.0497C74.8479 13.3197 74.034 13.5786 73.212 13.6255C70.2077 13.7958 70.2227 13.8064 70.2227 11.4945V9.3653H72.2725C73.3998 9.3653 74.5528 9.59526 74.8347 9.87632ZM110.975 13.3699C111.959 16.746 111.895 17.0305 110.151 17.0305C109.284 17.0305 108.656 16.8189 108.656 16.5263C108.656 15.9003 110.003 11.0687 110.177 11.0687C110.247 11.0687 110.606 12.1043 110.975 13.3699Z" fill="#2B304E"/>
</svg>
