<svg width="137" height="63" viewBox="0 0 137 63" fill="none" xmlns="http://www.w3.org/2000/svg">
<path fill-rule="evenodd" clip-rule="evenodd" d="M9.60674 3.53833V7.07667H14.9296H20.2524V18.9301V30.7835H24.1558H28.0592V18.9301V7.07667H32.1135H36.1677L38.0573 3.81539C39.0967 2.02145 40.0001 0.4292 40.0651 0.277052C40.1304 0.124549 33.3036 0 24.895 0H9.60674V3.53833ZM43.4067 3.30587C42.3823 5.11572 41.5438 6.70479 41.5438 6.83677C41.5438 6.96875 45.8233 7.07667 51.0539 7.07667C57.9775 7.07667 60.6797 7.19202 60.9898 7.50127C61.224 7.7348 61.4157 8.75561 61.4157 9.76969V11.6135L54.2298 11.7416C47.6104 11.8598 46.8975 11.9355 45.1839 12.7001C42.955 13.6951 41.1623 15.5729 40.305 17.8109C39.3781 20.2311 39.6871 24.1392 40.9795 26.3379C42.0849 28.2189 44.2364 29.9141 46.1803 30.436C46.9809 30.6508 51.8158 30.7566 58.2794 30.7004L69.0451 30.6066V18.5763C69.0451 5.03717 68.9954 4.7074 66.604 2.32645C64.4444 0.175855 63.4628 -0.00106153 53.7451 0.00743047L45.2697 0.0148609L43.4067 3.30587ZM79.1585 0.464937C77.2607 1.06468 74.7518 3.7616 74.2526 5.73953C73.6018 8.31615 73.6937 23.1014 74.3743 25.3875C75.0091 27.519 77.238 29.7082 79.4448 30.3674C80.355 30.6395 83.9884 30.7835 89.934 30.7835H99.0304V27.2452V23.7068H90.7622C84.8046 23.7068 82.3752 23.5883 82.0683 23.2822C81.4654 22.6811 81.4654 8.10243 82.0683 7.50127C82.3713 7.19909 84.5508 7.07667 89.6199 7.07667H96.7458L98.6606 3.80371C99.7138 2.0034 100.636 0.411154 100.711 0.265375C100.932 -0.168425 80.5651 0.0201686 79.1585 0.464937ZM106.795 0.988611C105.414 1.70795 104.605 2.44711 103.826 3.70216L102.756 5.42674L102.651 14.8253C102.561 22.7667 102.633 24.4534 103.113 25.7063C103.822 27.559 106.326 29.901 108.131 30.401C108.939 30.6246 113.239 30.7803 118.636 30.7814L127.774 30.7835V27.2452V23.7068L119.523 23.7015C114.985 23.6983 111.07 23.5678 110.822 23.411C110.475 23.1913 110.394 21.3025 110.467 15.1897L110.563 7.25358L118.015 7.15734L125.467 7.06145L126.127 5.91892C126.491 5.29087 127.401 3.7018 128.15 2.38838L129.512 0H119.102H108.692L106.795 0.988611ZM61.4157 21.0531V23.7068H55.2057C49.4687 23.7068 48.9418 23.6531 48.286 22.9992C47.2292 21.9455 47.3396 20.0517 48.5113 19.1328C49.3733 18.4567 49.9137 18.3993 55.431 18.3993H61.4157V21.0531ZM23.801 40.6908C23.592 41.0801 23.0764 41.3985 22.6548 41.3985C22.2329 41.3985 21.4401 41.8263 20.8929 42.3493C18.8646 44.2868 19.9366 47.793 22.7272 48.3496C23.3177 48.4674 23.801 48.7827 23.801 49.0502C23.801 49.3176 24.1203 49.5367 24.5107 49.5367C24.901 49.5367 25.2204 49.3155 25.2204 49.0452C25.2204 48.7657 25.7459 48.4557 26.4411 48.3255C28.0685 48.0212 29.4787 46.3408 29.4787 44.7054C29.4787 43.1574 27.8712 41.3985 26.4564 41.3985C25.8073 41.3985 25.4503 41.1756 25.3233 40.6908C25.2211 40.3016 24.9223 39.9832 24.6594 39.9832C24.3961 39.9832 24.01 40.3016 23.801 40.6908ZM0.735352 44.9368C0.735352 49.4719 0.746707 49.5367 1.53378 49.5335C2.1601 49.531 2.79103 48.7876 4.46134 46.0836L6.59047 42.6369L6.69196 46.0868C6.78493 49.2451 6.85235 49.5367 7.49038 49.5367C8.14722 49.5367 8.18732 49.2724 8.18732 44.9368C8.18732 40.4021 8.17596 40.337 7.3889 40.3388C6.76187 40.3402 6.13342 41.0811 4.46134 43.7887L2.3322 47.2368L2.23071 43.7869C2.13774 40.6286 2.07032 40.337 1.43229 40.337C0.775449 40.337 0.735352 40.6013 0.735352 44.9368ZM10.6713 44.9368C10.6713 49.3007 10.7079 49.5367 11.381 49.5367C12.012 49.5367 12.0907 49.3007 12.0907 47.4137V45.2907H14.2199H16.349V47.4137C16.349 49.3007 16.4278 49.5367 17.0587 49.5367C17.7319 49.5367 17.7684 49.3007 17.7684 44.9368C17.7684 40.573 17.7319 40.337 17.0587 40.337C16.4349 40.337 16.349 40.573 16.349 42.2831V44.2292H14.2199H12.0907V42.2831C12.0907 40.573 12.0049 40.337 11.381 40.337C10.7079 40.337 10.6713 40.573 10.6713 44.9368ZM33.298 40.8908C30.529 42.3889 30.5755 47.5587 33.3704 48.9999C35.9942 50.353 38.9813 49.1142 39.8192 46.326C41.0267 42.3079 36.9533 38.9132 33.298 40.8908ZM42.0526 40.8009C41.9543 41.056 41.9195 43.0842 41.9749 45.308C42.0629 48.8304 42.1559 49.3665 42.697 49.4698C43.2226 49.5703 43.318 49.3123 43.318 47.7933C43.318 46.1448 43.3862 45.9983 44.1523 45.9983C45.7126 45.9983 47.1444 45.2687 47.5632 44.2607C48.1845 42.765 47.6835 41.407 46.2978 40.8295C44.7875 40.2004 42.2904 40.1834 42.0526 40.8009ZM49.7054 44.9145C49.7054 49.2734 49.7452 49.5367 50.4027 49.5367C51.0439 49.5367 51.1082 49.2451 51.2011 45.9099L51.3023 42.2831L51.907 43.8753C52.2395 44.7511 52.853 46.3922 53.2707 47.5223C53.8874 49.191 54.1642 49.5568 54.744 49.4684C55.2898 49.3852 55.7798 48.5258 56.8235 45.8214L58.189 42.2831L58.2056 45.9099C58.2209 49.2954 58.2692 49.5367 58.9317 49.5367C59.6048 49.5367 59.6414 49.3007 59.6414 44.9368V40.337H58.607C57.6237 40.337 57.5055 40.5118 56.2209 43.8668C55.4775 45.8083 54.7493 47.2771 54.6024 47.1306C54.4555 46.9841 53.8079 45.4357 53.1628 43.6892C52.0429 40.6572 51.9385 40.509 50.8477 40.4032L49.7054 40.2921V44.9145ZM64.8152 41.4615C64.5458 42.1079 63.9284 43.5923 63.443 44.7599C62.9575 45.9276 62.3007 47.4802 61.9831 48.2098C61.4253 49.4924 61.4299 49.5367 62.1158 49.5367C62.5917 49.5367 62.9966 49.1283 63.3447 48.2983C63.8564 47.0768 63.8929 47.0598 66.0061 47.0598C68.1189 47.0598 68.1554 47.0768 68.6675 48.2983C69.1593 49.4719 70.3052 50.0409 70.2714 49.0944C70.2626 48.8513 69.4808 46.821 68.5337 44.583C67.1817 41.3882 66.6498 40.4895 66.0579 40.4C65.4887 40.3137 65.1846 40.5734 64.8152 41.4615ZM72.4162 44.911V49.5367H75.6099C78.7798 49.5367 78.8036 49.5434 78.8036 50.4213C78.8036 50.9718 79.0048 51.3058 79.3359 51.3058C79.7301 51.3058 79.8682 50.8929 79.8682 49.7136C79.8682 48.5343 79.7301 48.1213 79.3359 48.1213C78.8951 48.1213 78.8036 47.4529 78.8036 44.2292C78.8036 41.0054 78.712 40.337 78.2713 40.337C77.8306 40.337 77.739 41.0054 77.739 44.2292V48.1213H75.7994H73.8597L73.759 44.3219C73.6717 41.0316 73.5748 40.5065 73.0372 40.4039C72.4712 40.2956 72.4162 40.6961 72.4162 44.911ZM81.8791 40.573C81.7489 40.7025 81.6424 42.7724 81.6424 45.1728C81.6424 49.5243 81.6449 49.5367 82.481 49.5367C83.1623 49.5367 83.712 48.8895 85.4085 46.0914L87.4976 42.6458L87.5991 46.0914C87.692 49.2451 87.7598 49.5367 88.3975 49.5367C89.0547 49.5367 89.0944 49.2724 89.0944 44.9121C89.0944 40.3349 89.0863 40.2889 88.3052 40.4007C87.7523 40.48 86.977 41.3879 85.7144 43.4334C83.0487 47.753 83.0619 47.7512 83.0619 43.7692C83.0619 41.1448 82.9504 40.337 82.5888 40.337C82.3284 40.337 82.009 40.4432 81.8791 40.573ZM93.2686 40.8908C90.4996 42.3889 90.5461 47.5587 93.341 48.9999C95.9648 50.353 98.952 49.1142 99.7898 46.326C100.997 42.3079 96.9239 38.9132 93.2686 40.8908ZM102.224 44.9368C102.224 49.1761 102.279 49.5781 102.845 49.4709C103.336 49.3774 103.488 48.9228 103.573 47.3047L103.68 45.2564L105.702 45.3621L107.724 45.4676L107.831 47.5021C107.909 48.995 108.074 49.5367 108.452 49.5367C108.875 49.5367 108.966 48.7193 108.966 44.9368C108.966 41.0839 108.88 40.337 108.434 40.337C108.025 40.337 107.902 40.7892 107.902 42.2831V44.2292H105.791H103.681L103.573 42.3747C103.491 40.9417 103.325 40.4938 102.845 40.4028C102.279 40.2956 102.224 40.6976 102.224 44.9368ZM111.805 44.9368C111.805 49.1761 111.86 49.5781 112.426 49.4709C112.916 49.3778 113.07 48.9238 113.154 47.3217L113.26 45.2907H115.371H117.483V47.4137C117.483 49.065 117.601 49.5367 118.015 49.5367C118.461 49.5367 118.547 48.7897 118.547 44.9368C118.547 41.0839 118.461 40.337 118.015 40.337C117.606 40.337 117.483 40.7892 117.483 42.2831V44.2292H115.372H113.262L113.154 42.3747C113.072 40.9417 112.906 40.4938 112.426 40.4028C111.86 40.2956 111.805 40.6976 111.805 44.9368ZM122.238 41.54C121.113 42.6613 120.953 43.0863 120.953 44.9368C120.953 46.7874 121.113 47.2123 122.238 48.3336C123.211 49.3042 123.721 49.5367 124.876 49.5367C125.664 49.5367 126.718 49.3813 127.218 49.1917C128.501 48.7055 129.545 46.8288 129.547 45.0076C129.549 42.0563 127.845 40.337 124.917 40.337C123.716 40.337 123.222 40.5585 122.238 41.54ZM131.677 44.9368V49.5678L134.25 49.4638C136.254 49.3828 136.822 49.2423 136.822 48.829C136.822 48.4384 136.331 48.2699 134.96 48.1914L133.097 48.0842V46.6876V45.2907H134.871C136.211 45.2907 136.645 45.1608 136.645 44.7599C136.645 44.359 136.211 44.2292 134.871 44.2292H133.097V43.0092V41.7895L134.96 41.6823C136.331 41.6037 136.822 41.4353 136.822 41.0447C136.822 40.6314 136.254 40.4909 134.25 40.4099L131.677 40.3059V44.9368ZM37.5119 42.1465C38.2777 42.7806 38.685 44.8024 38.3153 46.137C37.9178 47.5722 37.4079 48.0438 35.9353 48.3375C35.0173 48.5205 34.6471 48.3754 33.7511 47.4823C32.8956 46.6292 32.6724 46.1024 32.6724 44.9368C32.6724 43.7713 32.8956 43.2445 33.7511 42.3914C34.6471 41.4983 35.0173 41.3532 35.9353 41.5361C36.5431 41.6575 37.2525 41.9321 37.5119 42.1465ZM97.4867 42.1504C97.7483 42.3669 98.1386 43.1298 98.3537 43.846C99.046 46.1501 97.513 48.4752 95.3012 48.4752C95.0319 48.4752 94.3637 48.0909 93.8161 47.6214C92.9638 46.8904 92.8204 46.5036 92.8204 44.9368C92.8204 43.3538 92.9602 42.9865 93.8541 42.2198C94.9297 41.2973 96.4218 41.269 97.4867 42.1504ZM127.091 42.4328C128.57 43.9075 128.553 45.9831 127.05 47.4823C126.147 48.3825 125.785 48.5222 124.832 48.3386C123.235 48.0311 122.451 46.948 122.451 45.0511C122.451 43.1878 122.918 42.1822 123.982 41.7548C125.325 41.2152 126.023 41.3677 127.091 42.4328ZM46.2967 42.5485C46.8957 43.5024 46.1391 44.3866 44.6129 44.5158L43.318 44.6258V43.1677V41.7095L44.6129 41.8196C45.3673 41.8836 46.0699 42.1876 46.2967 42.5485ZM67.032 44.3176L67.7633 45.9983H66.0139H64.2648L64.9696 44.2161C65.3571 43.236 65.6739 42.3284 65.6739 42.1992C65.6739 41.6876 66.3386 42.7243 67.032 44.3176ZM23.801 44.739C23.801 45.9927 23.6722 47.0973 23.515 47.1943C23.3578 47.2912 22.8386 47.1777 22.3617 46.9417C20.6179 46.0794 21.2517 42.46 23.1463 42.46C23.7147 42.46 23.801 42.7597 23.801 44.739ZM27.6813 43.5859C28.0795 44.296 28.1252 44.784 27.8641 45.5246C27.5191 46.5025 26.0603 47.5357 25.5064 47.1943C25.3492 47.0973 25.2204 45.9821 25.2204 44.7157C25.2204 42.4186 25.2229 42.4133 26.1849 42.5251C26.7906 42.5952 27.3478 42.9904 27.6813 43.5859ZM4.40598 54.2098C4.05716 54.6726 0.735352 62.4381 0.735352 62.7913C0.735352 62.8964 1.02598 62.9823 1.38119 62.9823C1.76869 62.9823 2.22929 62.5231 2.53447 61.8324C2.81339 61.2001 3.16185 60.7224 3.30806 60.7709C3.45426 60.8194 4.43295 60.8593 5.48296 60.8593C7.26895 60.8593 7.41977 60.9276 7.83246 61.9208C8.10109 62.5676 8.53402 62.9823 8.93997 62.9823C9.30689 62.9823 9.59823 62.8627 9.58829 62.717C9.578 62.5712 8.73948 60.5423 7.7253 58.2088C5.92476 54.0675 5.18524 53.1762 4.40598 54.2098ZM11.7359 58.3662C11.7359 62.7463 11.7721 62.9823 12.4456 62.9823C13.112 62.9823 13.1553 62.7463 13.1553 59.1096V55.2369L14.8409 55.129C16.0545 55.0512 16.5264 54.8725 16.5264 54.4903C16.5264 54.0813 15.9771 53.9355 14.1312 53.8549L11.7359 53.7505V58.3662ZM18.7294 54.0042C18.591 54.1418 18.4781 56.2181 18.4781 58.6185V62.9823H21.1396C23.2261 62.9823 23.801 62.8716 23.801 62.47C23.801 62.1017 23.2783 61.9279 21.938 61.8508L20.075 61.7439V60.3286V58.9133L21.7605 58.8053C22.944 58.7296 23.4461 58.5453 23.4461 58.1861C23.4461 57.8086 22.9827 57.6748 21.6718 57.6748H19.8976V56.4548V55.2352L21.7605 55.1279C23.1324 55.0494 23.6235 54.881 23.6235 54.4903C23.6235 54.0831 23.0831 53.9355 21.3021 53.8566C20.0249 53.8 18.8674 53.8665 18.7294 54.0042ZM26.1668 54.0187C26.0366 54.1482 25.9301 56.2181 25.9301 58.6185C25.9301 62.7092 25.9734 62.9823 26.6221 62.9823C27.2157 62.9823 27.3293 62.6929 27.4205 60.9478L27.527 58.9133L29.5674 58.8071L31.6078 58.701V60.8416C31.6078 62.7463 31.6859 62.9823 32.3175 62.9823C32.991 62.9823 33.0272 62.7463 33.0272 58.3567C33.0272 54.1422 32.9719 53.7413 32.4062 53.8485C31.9261 53.9394 31.7607 54.3874 31.6781 55.8204L31.5705 57.6748H29.4602H27.3495V55.7288C27.3495 54.3428 27.2133 53.7827 26.8765 53.7827C26.616 53.7827 26.2967 53.8888 26.1668 54.0187ZM35.1563 54.4776C35.1563 55.0823 35.3845 55.198 36.5758 55.198H37.9952V59.0902C37.9952 62.7463 38.0381 62.9823 38.7049 62.9823C39.3713 62.9823 39.4146 62.7463 39.4146 59.1114V55.2408L40.7453 55.1308C41.6428 55.0568 42.076 54.8481 42.076 54.4903C42.076 54.0618 41.41 53.9401 38.6162 53.8584C35.3391 53.7625 35.1563 53.7951 35.1563 54.4776ZM45.9493 54.2855C44.2655 55.0165 43.318 56.4516 43.318 58.271C43.318 61.3805 45.0011 62.9823 48.2683 62.9823C49.7846 62.9823 50.0603 62.8801 50.0603 62.3182C50.0603 61.7414 49.8523 61.6774 48.4805 61.8317C47.0745 61.9895 46.7814 61.8901 45.8191 60.9308C44.5923 59.7076 44.4099 58.2714 45.2704 56.6123C45.8989 55.4 47.8605 54.7005 49.2033 55.2093C49.9198 55.4811 50.0603 55.4259 50.0603 54.8732C50.0603 53.72 47.9475 53.4182 45.9493 54.2855ZM51.8346 54.4903C51.8346 55.0802 52.0713 55.198 53.254 55.198H54.6734V59.0902C54.6734 62.7463 54.7164 62.9823 55.3831 62.9823C56.0499 62.9823 56.0928 62.7463 56.0928 59.0902V55.198H57.2756C58.6301 55.198 58.9626 54.9822 58.6918 54.2787C58.5467 53.9019 57.7 53.7827 55.1677 53.7827C52.0713 53.7827 51.8346 53.8329 51.8346 54.4903ZM60.9426 54.0187C60.8124 54.1482 60.706 56.2181 60.706 58.6185V62.9823H62.6811C64.6129 62.9823 65.9447 62.5592 66.467 61.7793C67.0014 60.9811 66.736 59.4826 65.9646 58.9437C65.2353 58.4342 65.225 58.3648 65.7871 57.7456C66.4181 57.0503 66.5643 55.676 66.087 54.9263C65.5501 54.0824 61.5807 53.3821 60.9426 54.0187ZM70.7533 54.4726C69.2668 55.3763 68.8676 56.1958 68.8676 58.3425C68.8676 60.5402 69.3446 61.6311 70.6384 62.3932C71.8981 63.1352 74.4953 63.155 75.5329 62.43C77.3004 61.1955 77.9413 58.006 76.8459 55.894C75.7905 53.8591 72.8796 53.1797 70.7533 54.4726ZM83.7716 58.3825C83.7716 62.2354 83.8582 62.9823 84.3039 62.9823C84.7059 62.9823 84.8361 62.55 84.8361 61.2132V59.444H86.2715C88.7044 59.444 90.1788 57.2184 89.0902 55.1902C88.6952 54.4542 86.7204 53.7876 84.9249 53.7848L83.7716 53.7827V58.3825ZM93.885 54.1015C90.8839 55.4192 90.313 60.2447 92.9162 62.2867C93.9875 63.1267 96.4822 63.2166 97.9356 62.4672C99.0471 61.894 100.095 60.0091 100.095 58.5831C100.095 57.3316 99.2954 55.5232 98.3842 54.714C97.552 53.9748 94.9726 53.6238 93.885 54.1015ZM104.443 54.4256C102.41 55.5065 101.592 57.4562 102.21 59.7458C102.792 61.8996 103.985 62.7485 106.671 62.919C108.776 63.0528 108.966 63.0064 108.966 62.3592C108.966 61.7361 108.786 61.6742 107.42 61.8278C106.085 61.9778 105.718 61.8621 104.723 60.9761C102.789 59.2526 103.248 56.3303 105.607 55.3473C106.47 54.9878 107.059 54.9457 107.72 55.1962C108.449 55.4726 108.681 55.4287 108.853 54.9815C109.336 53.7275 106.441 53.3627 104.443 54.4256ZM112.985 54.2904C109.891 55.6562 109.595 60.6754 112.507 62.3907C113.47 62.9576 116.768 63.2237 117.222 62.7707C117.77 62.2241 117.013 61.6077 116.034 61.803C114.603 62.0882 112.94 61.3133 112.289 60.059C110.91 57.3996 113.576 54.1878 116.304 55.2217C117.085 55.5179 117.166 55.4683 117.064 54.7564C116.97 54.0986 116.703 53.9451 115.531 53.8764C114.75 53.8304 113.605 54.0169 112.985 54.2904ZM119.856 54.0112C119.722 54.145 119.612 56.2294 119.612 58.6429C119.612 62.9894 119.62 63.0305 120.409 62.9187C120.985 62.8369 121.772 61.877 123.248 59.4546L125.29 56.1035V59.5431C125.29 62.7463 125.338 62.9823 125.999 62.9823C126.673 62.9823 126.709 62.7463 126.709 58.3825C126.709 54.0856 126.664 53.7827 126.029 53.7827C125.551 53.7827 124.736 54.7861 123.279 57.1696L121.209 60.5565L121.031 57.2863C120.869 54.2964 120.527 53.3421 119.856 54.0112ZM129.785 54.0187C129.654 54.1482 129.548 56.2181 129.548 58.6185V62.9823H130.406C131.107 62.9823 131.641 62.3706 133.334 59.6269L135.403 56.2712L135.505 59.6269C135.598 62.6915 135.667 62.9823 136.303 62.9823C136.96 62.9823 137 62.718 137 58.3577C137 53.8347 136.983 53.736 136.241 53.8464C135.719 53.9246 134.808 55.0388 133.314 57.4286L131.145 60.8976L131.044 57.3401C130.969 54.7111 130.822 53.7827 130.482 53.7827C130.229 53.7827 129.915 53.8888 129.785 54.0187ZM75.0155 55.8908C75.9459 56.7796 76.1731 59.0778 75.4651 60.4429C74.0301 63.2095 70.1451 61.8158 70.1451 58.5339C70.1451 55.4768 72.9747 53.9412 75.0155 55.8908ZM98.216 56.9095C98.8632 58.4543 98.3749 60.5335 97.1667 61.3774C94.4346 63.2852 91.423 59.3771 93.3122 56.3756C94.5496 54.409 97.2933 54.7076 98.216 56.9095ZM64.7868 56.4364C64.7868 57.4077 64.6736 57.5071 63.4561 57.6076C62.1431 57.7162 62.1254 57.7003 62.1254 56.4364C62.1254 55.1725 62.1431 55.1566 63.4561 55.2652C64.6736 55.3657 64.7868 55.4652 64.7868 56.4364ZM87.6608 55.7118C88.3045 56.4849 87.9631 57.4356 86.8507 57.9671C85.3943 58.6631 84.8361 58.2909 84.8361 56.6243C84.8361 55.2401 84.8713 55.198 86.0348 55.198C86.6938 55.198 87.4255 55.4291 87.6608 55.7118ZM6.7679 59.4893C6.7679 59.6591 6.03193 59.7978 5.13272 59.7978C3.29776 59.7978 3.27257 59.6782 4.49434 56.7697L5.08021 55.3749L5.92405 57.2778C6.3882 58.3245 6.7679 59.3198 6.7679 59.4893ZM64.8734 59.5158C65.9294 60.3898 64.8414 61.9208 63.1647 61.9208C62.1963 61.9208 62.1254 61.8281 62.1254 60.5646C62.1254 59.8184 62.2404 59.0934 62.3809 58.9532C62.6875 58.6475 64.2506 59.0003 64.8734 59.5158Z" fill="#2B304E"/>
</svg>
