<svg width="235" height="61" viewBox="0 0 235 61" fill="none" xmlns="http://www.w3.org/2000/svg">
<path fill-rule="evenodd" clip-rule="evenodd" d="M0.881958 30.5001V60.3708H79.7165H158.551V40.0914C158.551 28.9378 158.491 15.496 158.418 10.2207L158.285 0.629395H79.5838H0.881958V30.5001ZM163.553 30.5001V60.3708H199.269H234.984V30.5001V0.629395H199.269H163.553V30.5001ZM85.1189 15.358C86.396 15.5596 87.72 15.9937 87.72 16.2109C87.72 16.2936 87.9001 16.3613 88.1202 16.3613C88.3403 16.3613 88.5203 16.4509 88.5203 16.5604C88.5203 16.67 88.62 16.7596 88.7416 16.7596C89.183 16.7596 91.4794 18.7189 91.787 19.3579C91.8636 19.5168 92.1003 19.9159 92.313 20.2445C93.0185 21.3344 93.3104 21.9696 93.4433 22.704C93.5155 23.1037 93.6412 23.5203 93.7226 23.6298C93.8039 23.7394 93.9167 24.2607 93.9735 24.7886C94.0664 25.6517 94.0308 25.7654 93.6194 25.9211C93.3679 26.0163 91.872 26.1222 90.2951 26.1563L87.4281 26.2186L87.2578 25.0256C87.1641 24.3694 87.0273 23.7869 86.9537 23.7312C86.8798 23.6754 86.5791 23.1818 86.2852 22.6341C85.9252 21.9636 85.4546 21.456 84.8439 21.0797C84.0548 20.5936 83.7365 20.5211 82.3893 20.5211C79.7845 20.5211 78.7313 21.332 77.4461 24.3268C77.1035 25.125 76.7152 28.2466 76.7152 30.2014C76.7152 31.7959 77.1039 35.2995 77.3118 35.5781C77.3935 35.6876 77.5247 36.0461 77.6036 36.3747C77.7502 36.9868 78.5958 38.2448 79.0452 38.5198C79.1834 38.6044 79.4136 38.7888 79.5566 38.93C80.506 39.8661 83.0153 40.178 84.3333 39.5236C85.7619 38.8143 87.0143 37.133 87.2476 35.6112C87.4949 33.9977 87.4607 34.0151 90.0918 34.172C91.3736 34.2485 92.7976 34.4034 93.2566 34.5163C94.0744 34.7172 94.0892 34.7361 93.9909 35.4485C93.9359 35.8483 93.8155 36.3547 93.7234 36.5738C93.6312 36.7928 93.5093 37.1513 93.4523 37.3703C93.2232 38.2515 92.7828 39.208 92.2176 40.0529C91.5559 41.0418 89.6104 43.0458 89.3119 43.0458C89.2066 43.0458 89.1206 43.1181 89.1206 43.2067C89.1206 43.2951 88.7378 43.5297 88.2702 43.728C87.8026 43.9264 87.1583 44.2125 86.8388 44.3639C86.5193 44.515 86.0991 44.6389 85.9052 44.6389C85.7111 44.6389 85.5166 44.7458 85.4728 44.8762C85.3708 45.1811 79.5008 45.2265 79.0924 44.9256C78.9403 44.8135 78.4559 44.6048 78.0157 44.4614C74.7173 43.3881 72.4995 41.4272 70.9496 38.2143C69.7411 35.7089 69.5304 34.9468 69.3119 32.2923C69.0038 28.5483 69.3834 25.5037 70.4538 23.132C71.1982 21.4827 71.6017 20.6537 71.7142 20.5432C71.7698 20.4884 72.0767 20.0852 72.3963 19.6471C72.7158 19.209 73.2555 18.5958 73.5956 18.2846C74.3477 17.5963 76.2162 16.3613 76.5055 16.3613C76.6207 16.3613 76.7152 16.2936 76.7152 16.2105C76.7152 15.9891 78.2038 15.5436 79.9166 15.2529C81.4166 14.9982 83.0471 15.031 85.1189 15.358ZM34.1965 15.7527C36.3383 16.2522 38.6425 17.8271 39.3396 19.2681C39.5035 19.6074 39.7972 20.5585 39.9921 21.382C40.3256 22.7922 40.3268 22.9581 40.0127 24.2499C39.6685 25.6646 39.1243 26.9156 38.8532 26.9156C38.7682 26.9156 38.6985 27.0116 38.6985 27.1289C38.6985 27.5178 37.5982 28.3958 36.2284 29.1001L35.6592 29.3929L36.484 29.7414C37.7737 30.2866 38.9676 31.1867 39.5937 32.0858C40.7086 33.6869 41.3157 36.2787 40.9247 37.7686C40.8096 38.2067 40.6068 38.9907 40.4737 39.5111C40.3406 40.0314 40.157 40.457 40.0655 40.457C39.9739 40.457 39.899 40.5593 39.899 40.6844C39.899 40.8095 39.5047 41.3696 39.0225 41.929C38.0947 43.0059 36.536 43.9405 35.0657 44.3015C34.5401 44.4306 30.8163 44.5411 25.6428 44.5811L17.0891 44.6472V30.1392C17.0891 22.1598 17.1567 15.5633 17.2391 15.4803C17.482 15.2364 33.0542 15.4865 34.1965 15.7527ZM66.4107 18.2531V21.041L59.4576 21.0934L52.5046 21.1458V24.0094C52.5046 26.4369 52.5528 26.8913 52.8211 26.9939C52.9952 27.0604 55.4713 27.1147 58.3235 27.1147H63.5094V29.604V32.0932H58.2929C54.0386 32.0932 53.0236 32.1458 52.7905 32.3778C52.5658 32.6014 52.5046 33.3673 52.5046 35.9596V39.257L59.4576 39.3093L66.4107 39.3617L66.4665 42.0003L66.5223 44.6389H56.1119H45.7016V30.0004V15.362L56.0561 15.4136L66.4107 15.4652V18.2531ZM115.932 18.2531V21.1406H112.531H109.129V32.8897V44.6389H105.528H101.926V32.8945V21.1502L98.5747 21.0956L95.2233 21.041L95.1671 18.4628C95.136 17.0447 95.1557 15.7677 95.2107 15.6251C95.2911 15.4166 97.3342 15.3656 105.622 15.3656H115.932V18.2531ZM125.637 24.142C125.637 30.5375 125.695 32.7603 125.86 32.5962C125.983 32.4735 126.147 32.1758 126.224 31.9345C126.301 31.6933 126.448 31.4958 126.55 31.4958C126.653 31.4958 126.737 31.3614 126.737 31.1971C126.737 31.0328 126.827 30.8984 126.937 30.8984C127.047 30.8984 127.137 30.7994 127.137 30.6783C127.137 30.5572 127.407 30.06 127.738 29.5731C128.068 29.0862 128.338 28.6027 128.338 28.4987C128.338 28.3946 128.428 28.3096 128.538 28.3096C128.648 28.3096 128.738 28.1819 128.738 28.0262C128.738 27.8703 129.034 27.3549 129.396 26.8811C130.17 25.8687 132.54 21.9969 132.54 21.7454C132.54 21.65 132.62 21.5423 132.719 21.5056C132.818 21.4692 133.398 20.6208 134.009 19.6208C134.971 18.0446 135.128 17.6463 135.18 16.6337L135.241 15.4652L138.792 15.4108L142.344 15.3564V29.9977V44.6389H138.742H135.141L135.125 36.0262C135.116 31.2891 135.056 27.5479 134.992 27.7122C134.927 27.8764 134.529 28.5147 134.107 29.1302C133.685 29.7459 133.34 30.3284 133.34 30.4246C133.34 30.521 133.132 30.8394 132.879 31.1325C132.626 31.4255 132.245 31.9857 132.033 32.3772C131.822 32.7687 131.579 33.0889 131.494 33.0889C131.409 33.0889 131.339 33.193 131.339 33.3203C131.339 33.5887 130.121 35.5458 129.892 35.6444C129.808 35.6811 129.738 35.8378 129.738 35.9929C129.738 36.1482 129.648 36.2751 129.538 36.2751C129.428 36.2751 129.338 36.4031 129.338 36.5597C129.338 36.716 129.226 36.9663 129.088 37.1156C128.723 37.5119 128.343 38.1165 128.209 38.5154C128.144 38.7072 128.021 38.8639 127.936 38.8639C127.851 38.8639 127.724 39.0879 127.655 39.3617C127.586 39.6355 127.441 39.8596 127.334 39.8596C127.226 39.8596 127.137 39.9864 127.137 40.1417C127.137 40.2969 127.061 40.4536 126.968 40.4902C126.874 40.5267 126.559 40.9853 126.267 41.5094C125.875 42.2146 125.737 42.7457 125.737 43.5506V44.6389H122.235H118.734V29.9975V15.3562L122.185 15.4106L125.637 15.4652V24.142ZM190.699 15.7979C191.378 15.9435 192.001 16.1299 192.083 16.2119C192.165 16.294 192.39 16.3613 192.583 16.3613C192.775 16.3613 192.963 16.4286 192.999 16.5106C193.036 16.5927 193.426 16.8392 193.866 17.0583C194.972 17.6085 196.225 18.9091 196.768 20.0688C197.018 20.6035 197.323 21.2563 197.445 21.5194C197.733 22.1373 197.729 26.3789 197.44 26.7424C197.321 26.8923 197.162 27.2689 197.088 27.5789C196.78 28.8572 195.453 30.4111 193.716 31.525C193.194 31.8604 192.766 32.1591 192.766 32.1888C192.766 32.237 193.175 33.1777 194.111 35.2794C194.281 35.6627 194.769 36.7 195.194 37.5844C195.619 38.4688 195.967 39.2548 195.967 39.3311C195.967 39.4073 196.229 40.0278 196.548 40.7101C197.478 42.6971 197.768 43.3901 197.768 43.6235C197.768 43.7439 197.858 43.8423 197.968 43.8423C198.078 43.8423 198.168 44.0215 198.168 44.2406C198.168 44.6249 198.035 44.6389 194.361 44.6389C190.914 44.6389 190.541 44.6058 190.429 44.2904C190.361 44.0986 190.145 43.5797 189.949 43.137C189.753 42.6945 189.474 41.9551 189.33 41.4941C189.185 41.0333 188.999 40.6561 188.916 40.6561C188.832 40.6561 188.764 40.4769 188.764 40.2578C188.764 40.0388 188.681 39.8596 188.58 39.8596C188.479 39.8596 188.333 39.5682 188.257 39.2124C188.18 38.8565 188.05 38.4756 187.967 38.366C187.885 38.2565 187.63 37.6199 187.4 36.9512C187.172 36.2826 186.759 35.2296 186.485 34.6113L185.985 33.4872H183.573H181.161V39.063V44.6389H177.559H173.958V30.1183C173.958 18.6938 174.011 15.5743 174.208 15.4873C174.741 15.2517 189.444 15.5287 190.699 15.7979ZM208.823 25.8701C208.869 33.5915 208.952 36.5692 209.136 37.1089C209.461 38.0653 210.498 39.2227 211.349 39.5778C212.126 39.9026 215.286 39.9659 215.476 39.6604C215.544 39.5509 215.757 39.4613 215.949 39.4613C216.322 39.4613 217.257 38.5498 217.891 37.5695C218.257 37.0033 218.282 36.4091 218.377 26.2186L218.477 15.4652H221.278H224.08V26.6169C224.08 39.1803 224.125 38.7565 222.521 41.1637C221.477 42.7303 220.327 43.5836 218.277 44.3135C217.727 44.5094 217.06 44.7749 216.796 44.9033C216.129 45.2273 209.661 45.204 209.332 44.8764C209.201 44.7458 208.941 44.6389 208.756 44.6389C208.57 44.6389 208.161 44.5051 207.845 44.3414C207.53 44.1779 207.115 44.0435 206.922 44.0427C206.73 44.0421 206.572 43.9616 206.572 43.8638C206.572 43.7663 206.347 43.63 206.072 43.5613C205.797 43.4926 205.572 43.3485 205.572 43.2411C205.572 43.1336 205.475 43.0458 205.356 43.0458C205.109 43.0458 203.722 41.6982 203.509 41.2515C203.431 41.0884 203.187 40.6595 202.968 40.2985C202.435 39.424 202.16 38.3172 201.966 36.2751C201.771 34.224 201.715 15.6856 201.903 15.4984C201.977 15.4253 203.549 15.3656 205.398 15.3656H208.76L208.823 25.8701ZM24.1369 23.9783L24.1922 27.0152L27.5937 27.0142C30.9739 27.013 31.0005 27.0096 31.8533 26.4592C32.9552 25.7479 33.1819 25.1596 33.1173 23.1782C33.0911 22.3725 32.011 21.2531 31.081 21.0681C30.7312 20.9984 29.0133 20.9415 27.2633 20.9415H24.0817L24.1369 23.9783ZM181.161 24.4108V27.9113H184.632C188.402 27.9113 188.843 27.8135 189.77 26.7738C190.545 25.9038 190.765 25.3946 190.765 24.4664C190.765 23.3582 190.147 22.0935 189.317 21.5046C188.699 21.0655 188.466 21.0376 184.913 20.9757L181.161 20.9104V24.4108ZM24.2256 32.226C24.1521 32.2989 24.0921 33.9637 24.0921 35.9256V39.4924L27.9274 39.427C30.7698 39.3786 31.7841 39.2972 31.8457 39.1128C31.8915 38.976 32.0144 38.8639 32.119 38.8639C32.529 38.8639 33.4462 37.674 33.6491 36.8791C33.9196 35.8181 33.8252 35.082 33.2787 33.993C32.7749 32.9889 32.4768 32.8091 30.6326 32.3975C29.2624 32.0916 24.4889 31.9637 24.2256 32.226Z" fill="#2B304E"/>
</svg>
