<svg width="46" height="15" viewBox="0 0 46 15" fill="none" xmlns="http://www.w3.org/2000/svg">
<path fill-rule="evenodd" clip-rule="evenodd" d="M0 0.119716C0 0.212709 0.465592 0.443941 1.03445 0.633393C3.91058 1.59105 6.90724 3.99673 8.06223 6.27497C8.3722 6.88645 8.62569 7.30001 8.62551 7.19412C8.62533 7.08822 8.35223 5.62652 8.01887 3.94591C7.56767 1.67287 7.31455 0.785107 7.02994 0.480328C6.67175 0.096612 6.43481 0.0665781 3.32373 0.0103588C1.48961 -0.0227567 0 0.0261451 0 0.119716ZM27.238 0.356531C25.2708 1.04464 23.7608 2.90373 23.7513 4.64923C23.7425 6.28613 24.7062 7.47309 27.1492 8.83314C27.9564 9.2827 28.7021 9.82064 28.8061 10.0286C29.0948 10.606 28.8421 11.292 28.2124 11.6405C27.4232 12.0771 24.701 11.9294 23.5675 11.3884L22.7579 11.002L22.4691 12.5636C22.3103 13.4225 22.23 14.1867 22.2909 14.2618C22.3515 14.3369 22.9247 14.5417 23.5644 14.7171C25.3489 15.2063 28.5429 15.0386 29.8641 14.3865C31.1256 13.7637 31.9468 13.0182 32.3858 12.0971C33.5352 9.68625 32.6593 7.64117 29.8245 6.11651C28.0741 5.17503 27.7052 4.84176 27.7052 4.20178C27.7052 3.77686 27.833 3.57143 28.236 3.34848C28.9272 2.96592 31.0189 2.96438 32.0283 3.34559C32.452 3.50559 32.8287 3.60416 32.8654 3.56488C32.9023 3.52561 33.0408 2.82499 33.1736 2.00826L33.4151 0.523071L32.9439 0.317639C32.6846 0.204622 31.5417 0.0808255 30.4038 0.0425116C28.7008 -0.014863 28.1408 0.0407782 27.238 0.356531ZM12.7565 0.696157C11.5259 4.16636 9.45954 9.73169 9.3561 9.85395C9.28324 9.9402 9.13374 9.62811 9.02364 9.16045C8.73543 7.93575 7.59412 6.21663 5.95933 4.54507C4.71961 3.27763 3.77799 2.49402 3.77799 2.72968C3.77799 2.77011 4.5066 5.4723 5.39713 8.73437C6.28765 11.9964 7.01626 14.6956 7.01626 14.7323C7.01626 14.7691 7.92712 14.7982 9.04019 14.7968L11.0641 14.7945L13.9282 7.625C15.5034 3.68175 16.8237 0.390416 16.8622 0.311093C16.9007 0.23177 16.0349 0.166694 14.9382 0.166694H12.9441L12.7565 0.696157ZM17.3097 7.24225C16.6922 11.1339 16.1881 14.4291 16.1894 14.5652C16.1908 14.7541 16.6264 14.7997 18.0291 14.7577L19.8668 14.7029L20.9865 7.77171C21.6024 3.95958 22.1113 0.689034 22.1172 0.503625C22.127 0.203853 21.9244 0.166694 20.2801 0.166694H18.4319L17.3097 7.24225ZM39.0946 0.357685C38.8778 0.452989 38.5778 0.731199 38.4279 0.975907C38.1553 1.42123 33.0452 13.6973 32.8289 14.426C32.7185 14.7987 32.7829 14.8105 34.6566 14.7577L36.5986 14.7029L36.9644 13.6871L37.3301 12.6715L39.7495 12.7244L42.1686 12.7775L42.359 13.7402L42.5491 14.7029L44.3073 14.7581C46.0589 14.813 46.0652 14.8115 45.9662 14.3731C45.9117 14.1309 45.2319 10.857 44.4556 7.09785L43.0441 0.26296L41.2666 0.223683C40.2888 0.20212 39.3116 0.262382 39.0946 0.357685ZM41.1885 8.01238L41.5188 9.60077H39.9898C38.8428 9.60077 38.4815 9.5407 38.5434 9.3601C38.5887 9.22783 39.0218 7.99909 39.5059 6.6298L40.3858 4.14037L40.622 5.28208C40.7519 5.91012 41.0068 7.13886 41.1885 8.01238Z" fill="white"/>
</svg>
