<svg width="18" height="18" viewBox="0 0 18 18" fill="none" xmlns="http://www.w3.org/2000/svg">
<path fill-rule="evenodd" clip-rule="evenodd" d="M8.0259 0.0238189C6.56171 0.210121 5.15969 0.733598 3.93816 1.55016C3.25903 2.00419 2.01686 3.24561 1.56255 3.92433C-0.469824 6.96095 -0.523176 10.7675 1.42343 13.8479L1.70908 14.2998L1.15759 15.9111C0.854249 16.7972 0.623292 17.5395 0.644365 17.5605C0.665438 17.5816 1.43894 17.3571 2.36326 17.0617L4.04388 16.5246L4.6077 16.8467C7.17121 18.3116 10.3856 18.3857 13.0651 17.042C13.9076 16.6194 14.5866 16.1169 15.3623 15.3416C16.6886 14.0161 17.4705 12.5834 17.8646 10.7566C18.0451 9.91945 18.0451 8.07193 17.8646 7.2348C17.4705 5.40798 16.6886 3.97532 15.3623 2.6498C14.0595 1.3478 12.6893 0.587937 10.9155 0.183778C10.3271 0.049739 8.58176 -0.0468984 8.0259 0.0238189ZM6.23645 4.18952C6.43654 4.3218 7.41809 6.6971 7.36312 6.91594C7.34134 7.00279 7.13266 7.30157 6.89944 7.57987C6.66623 7.85816 6.47538 8.1175 6.47538 8.15617C6.47538 8.42812 7.30533 9.54769 7.96218 10.1618C8.71693 10.8673 9.93191 11.5595 10.4155 11.5595C10.6142 11.5595 10.6988 11.5093 10.8753 11.2862C11.6282 10.3348 11.6639 10.2986 11.8705 10.2782C12.0178 10.2635 12.4175 10.4279 13.2413 10.8417L14.4042 11.4257L14.3993 11.8483C14.393 12.3952 14.2716 12.807 14.0334 13.09C13.7183 13.4643 13.0747 13.8343 12.5192 13.9606C11.8881 14.104 11.3796 14.0314 10.2212 13.6326C8.63469 13.0865 7.72946 12.5166 6.50286 11.2919C5.15095 9.94192 4.16362 8.48426 3.89679 7.44414C3.65054 6.48417 3.85309 5.44919 4.42721 4.73434C4.7925 4.27961 5.08949 4.13627 5.66488 4.13705C5.93622 4.13747 6.19346 4.16106 6.23645 4.18952Z" fill="white"/>
</svg>
